<svg width="104" height="104" viewBox="0 0 104 104" fill="none" xmlns="http://www.w3.org/2000/svg">
<path id="outergrid" fill-rule="evenodd" clip-rule="evenodd" d="M52.3069 0.916504H52.4072C52.8214 0.916899 53.1569 1.25301 53.1565 1.66722C53.1561 2.08143 52.82 2.4169 52.4058 2.4165H52.3084C51.8942 2.4169 51.5581 2.08143 51.5577 1.66722C51.5573 1.25301 51.8927 0.916899 52.3069 0.916504ZM45.2182 2.15988C45.2821 2.56913 45.0021 2.95271 44.5929 3.01661L44.4969 3.03169C44.0878 3.0964 43.7036 2.81719 43.6389 2.40806C43.5742 1.99893 43.8534 1.61481 44.2626 1.55011L44.3614 1.53457C44.7707 1.47067 45.1543 1.75062 45.2182 2.15988ZM59.496 2.15988C59.5599 1.75063 59.9435 1.47067 60.3527 1.53457L60.4516 1.55011C60.8607 1.61481 61.1399 1.99893 61.0752 2.40806C61.0105 2.81719 60.6264 3.0964 60.2173 3.03169L60.1213 3.01661C59.712 2.95271 59.4321 2.56913 59.496 2.15988ZM67.2591 3.88757C67.3866 3.49348 67.8095 3.27741 68.2036 3.40495L68.2985 3.43579C68.6924 3.56411 68.9076 3.98739 68.7793 4.38123C68.651 4.77507 68.2277 4.99032 67.8339 4.86201L67.7417 4.83207C67.3476 4.70452 67.1315 4.28166 67.2591 3.88757ZM37.4551 3.88757C37.5826 4.28166 37.3666 4.70453 36.9725 4.83207L36.8803 4.86201C36.4864 4.99032 36.0632 4.77507 35.9348 4.38123C35.8065 3.9874 36.0218 3.56411 36.4156 3.43579L36.5106 3.40495C36.9047 3.27741 37.3275 3.49348 37.4551 3.88757ZM74.6522 6.81656C74.8402 6.44747 75.2918 6.30065 75.6609 6.48864L75.7497 6.53399C76.1184 6.7227 76.2644 7.17459 76.0757 7.54332C75.887 7.91205 75.4351 8.05799 75.0663 7.86928L74.9801 7.82526C74.611 7.63727 74.4642 7.18566 74.6522 6.81656ZM30.062 6.81657C30.25 7.18566 30.1031 7.63727 29.734 7.82526L29.6478 7.86928C29.2791 8.05799 28.8272 7.91205 28.6385 7.54332C28.4498 7.17459 28.5957 6.7227 28.9644 6.53399L29.0533 6.48864C29.4224 6.30065 29.874 6.44747 30.062 6.81657ZM23.2208 10.8701C23.4642 11.2053 23.3899 11.6743 23.0547 11.9177L22.9765 11.9747C22.6418 12.2187 22.1727 12.1453 21.9286 11.8106C21.6845 11.4759 21.758 11.0068 22.0927 10.7627L22.1733 10.704C22.5084 10.4606 22.9774 10.535 23.2208 10.8701ZM81.4933 10.8701C81.7367 10.535 82.2058 10.4606 82.5409 10.704L82.6215 10.7627C82.9562 11.0068 83.0296 11.4759 82.7856 11.8106C82.5415 12.1453 82.0723 12.2187 81.7377 11.9747L81.6594 11.9177C81.3243 11.6743 81.2499 11.2053 81.4933 10.8701ZM17.0959 15.9419C17.3885 16.235 17.3881 16.7099 17.0949 17.0025L17.0264 17.071C16.7338 17.3642 16.259 17.3646 15.9658 17.072C15.6726 16.7794 15.6722 16.3045 15.9648 16.0113L16.0353 15.9408C16.3284 15.6482 16.8033 15.6487 17.0959 15.9419ZM87.6182 15.9419C87.9108 15.6487 88.3857 15.6482 88.6789 15.9408L88.7494 16.0113C89.042 16.3045 89.0415 16.7794 88.7484 17.072C88.4552 17.3646 87.9803 17.3642 87.6877 17.071L87.6192 17.0025C87.3261 16.7099 87.3256 16.235 87.6182 15.9419ZM11.8345 21.9047C12.1692 22.1487 12.2426 22.6179 11.9986 22.9526L11.9416 23.0308C11.6982 23.366 11.2292 23.4403 10.8941 23.1969C10.5589 22.9535 10.4846 22.4845 10.728 22.1493L10.7866 22.0687C11.0307 21.7341 11.4998 21.6606 11.8345 21.9047ZM92.8796 21.9047C93.2143 21.6606 93.6835 21.7341 93.9275 22.0687L93.9862 22.1493C94.2296 22.4845 94.1552 22.9535 93.8201 23.1969C93.4849 23.4403 93.0159 23.366 92.7725 23.0308L92.7156 22.9526C92.4715 22.6179 92.545 22.1487 92.8796 21.9047ZM97.1469 28.6146C97.5156 28.4258 97.9675 28.5718 98.1562 28.9405L98.2016 29.0293C98.3896 29.3984 98.2428 29.85 97.8737 30.038C97.5046 30.226 97.0529 30.0792 96.865 29.7101L96.8209 29.6239C96.6322 29.2552 96.7782 28.8033 97.1469 28.6146ZM7.56724 28.6146C7.93598 28.8033 8.08191 29.2552 7.89321 29.6239L7.84918 29.7101C7.6612 30.0792 7.20959 30.226 6.84049 30.038C6.47139 29.85 6.32457 29.3984 6.51256 29.0293L6.55791 28.9405C6.74662 28.5718 7.19851 28.4258 7.56724 28.6146ZM4.40516 35.9109C4.799 36.0392 5.01425 36.4625 4.88593 36.8564L4.85599 36.9485C4.72845 37.3426 4.30558 37.5587 3.9115 37.4312C3.51741 37.3036 3.30133 36.8808 3.42887 36.4867L3.45972 36.3917C3.58803 35.9978 4.01132 35.7826 4.40516 35.9109ZM100.309 35.9109C100.703 35.7826 101.126 35.9978 101.254 36.3917L101.285 36.4867C101.413 36.8808 101.197 37.3036 100.803 37.4312C100.409 37.5587 99.9857 37.3426 99.8582 36.9485L99.8282 36.8564C99.6999 36.4625 99.9152 36.0392 100.309 35.9109ZM2.43199 43.615C2.84111 43.6797 3.12032 44.0638 3.05562 44.473L3.04054 44.5689C2.97663 44.9782 2.59306 45.2581 2.1838 45.1942C1.77455 45.1303 1.49459 44.7467 1.5585 44.3375L1.57403 44.2386C1.63874 43.8295 2.02286 43.5503 2.43199 43.615ZM102.282 43.615C102.691 43.5503 103.075 43.8295 103.14 44.2387L103.156 44.3375C103.22 44.7468 102.94 45.1303 102.53 45.1942C102.121 45.2581 101.738 44.9782 101.674 44.5689L101.659 44.473C101.594 44.0638 101.873 43.6797 102.282 43.615ZM1.69115 51.5337C2.10536 51.5341 2.44082 51.8702 2.44043 52.2845V52.3818C2.44082 52.7961 2.10536 53.1322 1.69115 53.1326C1.27693 53.133 0.940825 52.7975 0.94043 52.3833V52.283C0.940825 51.8688 1.27693 51.5333 1.69115 51.5337ZM103.023 51.5337C103.437 51.5333 103.773 51.8688 103.774 52.283V52.3833C103.773 52.7975 103.437 53.133 103.023 53.1326C102.609 53.1322 102.273 52.7961 102.274 52.3818V52.2845C102.273 51.8702 102.609 51.5341 103.023 51.5337ZM2.1838 59.4721C2.59306 59.4082 2.97663 59.6881 3.04054 60.0974L3.05562 60.1933C3.12032 60.6025 2.84111 60.9866 2.43198 61.0513C2.02286 61.116 1.63874 60.8368 1.57403 60.4276L1.5585 60.3288C1.49459 59.9195 1.77455 59.536 2.1838 59.4721ZM102.53 59.4721C102.94 59.536 103.22 59.9195 103.156 60.3288L103.14 60.4277C103.075 60.8368 102.691 61.116 102.282 61.0513C101.873 60.9866 101.594 60.6025 101.659 60.1933L101.674 60.0974C101.738 59.6881 102.121 59.4082 102.53 59.4721ZM3.9115 67.2351C4.30559 67.1076 4.72845 67.3237 4.856 67.7178L4.88593 67.8099C5.01425 68.2038 4.799 68.6271 4.40516 68.7554C4.01132 68.8837 3.58803 68.6684 3.45972 68.2746L3.42887 68.1796C3.30133 67.7855 3.51741 67.3627 3.9115 67.2351ZM100.803 67.2351C101.197 67.3627 101.413 67.7855 101.285 68.1796L101.254 68.2746C101.126 68.6684 100.703 68.8837 100.309 68.7554C99.9152 68.6271 99.6999 68.2038 99.8282 67.8099L99.8582 67.7178C99.9857 67.3237 100.409 67.1076 100.803 67.2351ZM6.84049 74.6283C7.20959 74.4403 7.6612 74.5871 7.84919 74.9562L7.89321 75.0424C8.08192 75.4111 7.93598 75.863 7.56725 76.0517C7.19852 76.2404 6.74662 76.0945 6.55792 75.7258L6.51257 75.637C6.32458 75.2679 6.47139 74.8162 6.84049 74.6283ZM97.8737 74.6283C98.2428 74.8162 98.3896 75.2679 98.2016 75.6369L98.1562 75.7258C97.9675 76.0945 97.5156 76.2404 97.1469 76.0517C96.7782 75.863 96.6322 75.4111 96.8209 75.0424L96.865 74.9562C97.053 74.5871 97.5046 74.4403 97.8737 74.6283ZM10.8941 81.4694C11.2292 81.226 11.6982 81.3003 11.9416 81.6355L11.9986 81.7137C12.2426 82.0484 12.1692 82.5176 11.8345 82.7616C11.4998 83.0057 11.0307 82.9322 10.7866 82.5976L10.728 82.517C10.4845 82.1818 10.5589 81.7128 10.8941 81.4694ZM93.8201 81.4694C94.1552 81.7128 94.2296 82.1818 93.9862 82.517L93.9275 82.5976C93.6835 82.9322 93.2143 83.0057 92.8796 82.7616C92.545 82.5176 92.4715 82.0484 92.7156 81.7137L92.7725 81.6355C93.0159 81.3003 93.4849 81.226 93.8201 81.4694ZM15.9658 87.5943C16.259 87.3017 16.7338 87.3021 17.0264 87.5953L17.0949 87.6638C17.3881 87.9564 17.3885 88.4313 17.0959 88.7244C16.8033 89.0176 16.3284 89.0181 16.0353 88.7255L15.9648 88.655C15.6722 88.3618 15.6726 87.8869 15.9658 87.5943ZM88.7484 87.5943C89.0415 87.8869 89.042 88.3618 88.7494 88.655L88.6789 88.7255C88.3857 89.0181 87.9108 89.0176 87.6182 88.7244C87.3256 88.4313 87.3261 87.9564 87.6192 87.6638L87.6877 87.5953C87.9803 87.3021 88.4552 87.3017 88.7484 87.5943ZM21.9286 92.8557C22.1727 92.521 22.6418 92.4476 22.9765 92.6916L23.0547 92.7486C23.3899 92.992 23.4642 93.461 23.2208 93.7962C22.9774 94.1313 22.5084 94.2057 22.1732 93.9623L22.0927 93.9036C21.758 93.6595 21.6845 93.1904 21.9286 92.8557ZM82.7856 92.8557C83.0296 93.1904 82.9562 93.6595 82.6215 93.9036L82.5409 93.9623C82.2057 94.2057 81.7367 94.1313 81.4933 93.7962C81.2499 93.461 81.3243 92.992 81.6594 92.7486L81.7377 92.6916C82.0723 92.4476 82.5415 92.521 82.7856 92.8557ZM28.6385 97.123C28.8272 96.7542 29.2791 96.6083 29.6478 96.797L29.734 96.841C30.1031 97.029 30.25 97.4806 30.062 97.8497C29.874 98.2188 29.4224 98.3656 29.0533 98.1777L28.9644 98.1323C28.5957 97.9436 28.4498 97.4917 28.6385 97.123ZM76.0757 97.123C76.2644 97.4917 76.1184 97.9436 75.7497 98.1323L75.6609 98.1777C75.2918 98.3656 74.8402 98.2188 74.6522 97.8497C74.4642 97.4806 74.611 97.029 74.9801 96.841L75.0663 96.797C75.4351 96.6083 75.887 96.7542 76.0757 97.123ZM35.9348 100.285C36.0632 99.8912 36.4864 99.676 36.8803 99.8043L36.9725 99.8342C37.3666 99.9618 37.5826 100.385 37.4551 100.779C37.3276 101.173 36.9047 101.389 36.5106 101.261L36.4156 101.231C36.0218 101.102 35.8065 100.679 35.9348 100.285ZM68.7793 100.285C68.9076 100.679 68.6924 101.102 68.2985 101.231L68.2036 101.261C67.8095 101.389 67.3866 101.173 67.2591 100.779C67.1315 100.385 67.3476 99.9618 67.7417 99.8342L67.8339 99.8043C68.2277 99.676 68.651 99.8912 68.7793 100.285ZM43.6389 102.258C43.7036 101.849 44.0878 101.57 44.4969 101.635L44.5928 101.65C45.0021 101.714 45.2821 102.097 45.2182 102.506C45.1543 102.916 44.7707 103.196 44.3614 103.132L44.2626 103.116C43.8534 103.051 43.5742 102.667 43.6389 102.258ZM61.0752 102.258C61.1399 102.667 60.8607 103.051 60.4516 103.116L60.3527 103.132C59.9435 103.196 59.5599 102.916 59.496 102.506C59.4321 102.097 59.712 101.714 60.1213 101.65L60.2173 101.635C60.6264 101.57 61.0105 101.849 61.0752 102.258ZM51.5577 102.999C51.5581 102.585 51.8942 102.249 52.3084 102.25H52.4058C52.82 102.249 53.1561 102.585 53.1565 102.999C53.1569 103.413 52.8214 103.749 52.4072 103.75H52.3069C51.8927 103.749 51.5573 103.413 51.5577 102.999Z" fill="white"/>
</svg>
